HIERARCHY
ROOT Hips
{
	OFFSET 0.000000 0.000000 0.000000
	CHANNELS 6 Xposition Yposition Zposition Zrotation Yrotation Xrotation 
	JOINT LHipJoint
	{
		OFFSET 0.000000 0.000000 0.000000
		CHANNELS 3 Zrotation Yrotation Xrotation
		JOINT LeftUpLeg
		{
			OFFSET 1.363060 -1.794630 0.839290
			CHANNELS 3 Zrotation Yrotation Xrotation
			JOINT LeftLeg
			{
				OFFSET 2.448110 -6.726130 0.000000
				CHANNELS 3 Zrotation Yrotation Xrotation
				JOINT LeftFoot
				{
					OFFSET 2.562200 -7.039590 0.000000
					CHANNELS 3 Zrotation Yrotation Xrotation
					JOINT LeftToeBase
					{
						OFFSET 0.157640 -0.433110 2.322550
						CHANNELS 3 Zrotation Yrotation Xrotation
						End Site
						{
							OFFSET 0.000000 0.000000 0.000000
						}
					}
				}
			}
		}
	}
	JOINT RHipJoint
	{
		OFFSET 0.000000 0.000000 0.000000
		CHANNELS 3 Zrotation Yrotation Xrotation
		JOINT RightUpLeg
		{
			OFFSET -1.305520 -1.794630 0.839290
			CHANNELS 3 Zrotation Yrotation Xrotation
			JOINT RightLeg
			{
				OFFSET -2.542530 -6.985550 0.000000
				CHANNELS 3 Zrotation Yrotation Xrotation
				JOINT RightFoot
				{
					OFFSET -2.568260 -7.056230 0.000000
					CHANNELS 3 Zrotation Yrotation Xrotation
					JOINT RightToeBase
					{
						OFFSET -0.164730 -0.452590 2.363150
						CHANNELS 3 Zrotation Yrotation Xrotation
						End Site
						{
							OFFSET 0.000000 0.000000 0.000000
						}
					}
				}
			}
		}
	}
}
MOTION
Frames: 25
Frame Time: 0.008333
-9.149844 17.837198 -1.045076 -26.008297 84.361312 -10.685100 -9.655948 0.845608 5.877392 -11.556619 -11.579593 -27.592205 -1.943758 -1.244713 7.208453 1.330913 7.799031 -2.750297 1.104100 -0.000000 -22.597500 9.362701 -5.069920 0.161511 8.706650 -9.596237 2.299936 1.931341 -1.180370 8.930158 0.071086 3.456948 25.419338 1.655599 -0.000000 -67.396200
-8.921730 17.859184 -1.064803 -30.475376 85.125034 -15.526105 -9.754569 0.927701 5.740617 -12.563671 -10.583143 -27.170097 -2.105028 -1.256353 5.910191 1.062484 6.886584 -0.652918 1.311900 -0.000000 -24.701300 9.329934 -5.159152 0.069590 8.643749 -10.107125 2.752496 1.827383 -1.274619 9.826835 -0.044212 2.656693 25.775107 1.279300 0.000000 -65.477400
-8.696047 17.870067 -1.084341 -36.277768 85.910517 -21.715283 -9.862748 1.017475 5.580889 -13.654681 -9.535266 -26.815573 -2.249063 -1.231701 5.127868 0.851153 6.142556 1.143535 1.439500 0.000000 -26.179700 9.280396 -5.229338 -0.031020 8.563478 -10.625600 3.074144 1.718281 -1.370692 11.022784 -0.166579 1.592359 25.482715 0.727100 -0.000000 -63.722700
-8.472826 17.869789 -1.103460 -44.060087 86.685487 -29.895005 -9.979757 1.113479 5.413365 -14.778417 -8.515639 -26.490372 -2.366056 -1.176640 4.794981 0.701991 5.620815 2.613954 1.521900 -0.000000 -26.971400 9.212996 -5.276010 -0.151501 8.436297 -11.179541 3.271094 1.603642 -1.468332 12.482186 -0.297785 0.324304 24.620131 0.062600 -0.000000 -62.173399
-8.252076 17.858282 -1.122071 -54.810333 87.396259 -41.052022 -10.104983 1.216567 5.248241 -15.886360 -7.575257 -26.171544 -2.449865 -1.094568 4.860085 0.612826 5.331320 3.737775 1.584201 -0.000000 -27.065600 9.126064 -5.292463 -0.300002 8.236556 -11.787557 3.354646 1.482405 -1.565128 14.158088 -0.439001 -1.073707 23.286321 -0.640400 0.000000 -60.815999
-8.033640 17.835555 -1.140176 -69.580709 87.962478 -56.235884 -10.226841 1.332742 5.092181 -16.932020 -6.749354 -25.847084 -2.497362 -0.988165 5.276932 0.578115 5.256192 4.500438 1.639500 -0.000000 -26.513900 9.027347 -5.268651 -0.480921 7.945424 -12.454923 3.338785 1.351764 -1.656442 15.996949 -0.589645 -2.524816 21.590959 -1.312500 0.000001 -59.605299
-7.817388 17.801721 -1.157711 -88.069620 88.296485 -75.143344 -10.312005 1.469431 4.947618 -17.865634 -6.072588 -25.496012 -2.508344 -0.863525 5.982404 0.591706 5.374392 4.902539 1.694100 -0.000000 -25.438800 8.948134 -5.195372 -0.692794 7.562132 -13.162272 3.247605 1.209917 -1.736747 17.929172 -0.748845 -3.968278 19.651837 -1.903000 -0.000000 -58.508900
-7.603304 17.756683 -1.175072 -107.769193 88.347631 -95.255632 -10.328710 1.626478 4.809366 -18.664127 -5.528925 -25.167751 -2.490822 -0.722134 7.029532 0.635540 5.571655 4.908027 1.721500 0.000000 -23.927299 8.929979 -5.081664 -0.926344 7.112621 -13.930032 3.061593 1.066260 -1.805451 19.925250 -0.911604 -5.328426 17.552101 -2.365700 -0.000000 -57.460100
-7.391010 17.701057 -1.192069 -124.250956 88.149906 -112.140617 -10.267907 1.778905 4.681024 -19.311866 -5.185149 -24.789337 -2.450209 -0.580735 8.296438 0.706041 5.868910 4.561745 1.731600 0.000000 -22.191800 8.994997 -4.944641 -1.168824 6.605974 -14.694469 2.817194 0.934579 -1.867299 21.899466 -1.078151 -6.587000 15.389375 -2.694400 0.000001 -56.459500
-7.180617 17.634887 -1.209223 -136.468048 87.765084 -124.739418 -10.167605 1.906632 4.555665 -19.843454 -4.986418 -24.430208 -2.398535 -0.436018 9.868180 0.784020 6.130633 3.816351 1.682200 0.000000 -20.261800 9.114941 -4.806242 -1.406550 6.061241 -15.449853 2.491315 0.827833 -1.928991 23.840457 -1.241440 -7.703721 13.213553 -2.882300 0.000000 -55.513601
-6.972215 17.558692 -1.226567 -145.050200 87.277229 -133.676593 -10.058917 1.999683 4.433886 -20.290474 -4.922162 -24.096976 -2.343335 -0.289916 11.712020 0.864827 6.325496 2.669862 1.561800 -0.000000 -18.195300 9.256919 -4.670637 -1.631387 5.475492 -16.150632 2.084583 0.746791 -1.993686 25.734401 -1.394842 -8.657488 11.062790 -2.938400 -0.000000 -54.660600
-6.765449 17.473167 -1.244218 -151.086498 86.762115 -140.028132 -9.953423 2.059621 4.320230 -20.684758 -4.983405 -23.790471 -2.292008 -0.147274 13.750154 0.949473 6.459662 1.141056 1.372200 0.000000 -16.055300 9.403146 -4.534597 -1.830597 4.852358 -16.732877 1.577788 0.687018 -2.061797 27.595237 -1.532688 -9.435513 8.935139 -2.874501 0.000000 -53.851800
-6.560500 17.379032 -1.262307 -155.435398 86.253683 -144.643265 -9.857441 2.093236 4.209526 -21.050569 -5.114445 -23.550258 -2.252062 -0.006624 15.976735 1.034788 6.497597 -0.775489 1.106600 -0.000000 -13.800500 9.543310 -4.396534 -1.992595 4.220210 -17.155153 0.945727 0.644631 -2.133082 29.446837 -1.651578 -10.037721 6.821382 -2.706900 0.000000 -53.106300
-6.357407 17.277242 -1.280886 -158.664503 85.772842 -148.078284 -9.770123 2.107292 4.101127 -21.406883 -5.282331 -23.392828 -2.228741 0.130361 18.344910 1.122996 6.446432 -3.052436 0.774599 0.000000 -11.415700 9.675633 -4.255032 -2.106015 3.605309 -17.375889 0.158442 0.616030 -2.207633 31.319914 -1.750975 -10.473716 4.696731 -2.451000 0.000000 -52.400800
-6.156165 17.169077 -1.299928 -161.155619 85.328568 -150.701124 -9.689205 2.107999 3.996813 -21.767059 -5.464759 -23.328249 -2.224804 0.261553 20.796284 1.218783 6.330658 -5.639014 0.392000 0.000000 -8.912100 9.801065 -4.109548 -2.160453 3.031992 -17.360980 -0.817765 0.598077 -2.285712 33.245759 -1.833004 -10.763321 2.533798 -2.122600 -0.000001 -51.701599
-5.956747 17.056036 -1.319225 -163.202997 84.919639 -152.794340 -9.611101 2.100667 3.900268 -22.142941 -5.651597 -23.355591 -2.240455 0.384730 23.264193 1.327954 6.184542 -8.460759 -0.023699 0.000000 -6.342200 9.922732 -3.959899 -2.148832 2.512038 -17.093186 -2.011693 0.588102 -2.367990 35.250436 -1.900998 -10.928704 0.310197 -1.735600 0.000000 -50.945300
-5.759090 16.939862 -1.338499 -165.037422 84.538255 -154.578766 -9.532273 2.089764 3.816401 -22.543726 -5.841309 -23.466304 -2.273370 0.497988 25.681882 1.455499 6.042112 -11.424271 -0.458000 -0.000001 -3.806900 10.044094 -3.806018 -2.067201 2.044876 -16.571678 -3.443714 0.583414 -2.455201 37.348048 -1.959137 -10.995097 -1.980719 -1.304900 -0.000000 -50.065900
-5.563109 16.822472 -1.357389 -166.838909 84.170196 -156.229250 -9.450065 2.078562 3.749846 -22.975246 -6.036637 -23.644901 -2.319332 0.599811 27.987515 1.603566 5.928391 -14.424818 -0.899401 0.000000 -1.440000 10.167920 -3.647543 -1.915517 1.616365 -15.812623 -5.119896 0.581157 -2.548021 39.535480 -2.011579 -10.987799 -4.325015 -0.846100 -0.000000 -49.004000
-5.368610 16.705943 -1.375574 -168.733315 83.797099 -157.872513 -9.363628 2.069294 3.704139 -23.438165 -6.241138 -23.869007 -2.373189 0.689147 30.129296 1.769991 5.853651 -17.356431 178.661500 -0.000000 -0.621899 10.295166 -3.483912 -1.697894 1.202893 -14.849113 -7.028534 0.578158 -2.646809 41.789936 -2.062103 -10.932213 -6.686230 -0.376599 -0.000000 -47.725500
-5.175471 16.592349 -1.392840 -170.780231 83.397543 -159.577687 -9.274630 2.063133 3.680320 -23.926259 -6.456068 -24.107944 -2.430006 0.765485 32.067061 1.947707 5.811220 -20.121349 178.236300 0.000000 -2.268900 10.424251 -3.314113 -1.423317 0.775795 -13.729030 -9.137391 0.571112 -2.751357 44.068921 -2.113411 -10.851217 -9.008858 0.085800 0.000001 -46.233800
-4.983563 16.483872 -1.409243 -172.961987 82.951003 -161.345800 -9.187269 2.060820 3.676044 -24.425210 -6.677644 -24.323116 -2.486274 0.828856 33.770933 2.125285 5.778522 -22.638079 177.840500 0.000000 -3.450000 10.550967 -3.136505 -1.105271 0.308514 -12.508449 -11.393767 0.556691 -2.860240 46.313420 -2.167202 -10.765865 -11.226291 0.524500 0.000000 -44.573500
-4.792312 16.382487 -1.425055 -175.211006 82.442649 -163.119852 -9.104991 2.063548 3.693278 -24.917894 -6.908821 -24.493378 -2.540126 0.879044 35.224717 2.289959 5.725330 -24.847084 177.493100 -0.000001 -4.189100 10.671237 -2.949837 -0.752958 -0.215908 -11.239928 -13.759565 0.532135 -2.970363 48.466372 -2.224344 -10.694003 -13.275734 0.926200 -0.000001 -42.819300
-4.601772 16.290201 -1.440914 -177.378774 81.859829 -164.785405 -9.033876 2.072318 3.722313 -25.375674 -7.134451 -24.569656 -2.591537 0.917362 36.417748 2.426824 5.611881 -26.709548 177.216799 -0.000000 -4.528199 10.779085 -2.751761 -0.386528 -0.803555 -9.980729 -16.152363 0.496251 -3.077314 50.453928 -2.284629 -10.649066 -15.100146 1.281000 0.000000 -41.064700
-4.411365 16.208750 -1.457657 -179.326917 81.198907 -166.219375 -8.976259 2.088823 3.761675 -25.771938 -7.352237 -24.535296 -2.641088 0.944235 37.351954 2.524405 5.405072 -28.208720 177.031200 0.000000 -4.554200 10.871654 -2.541577 -0.015920 -1.444875 -8.770802 -18.525430 0.449728 -3.175410 52.220212 -2.347997 -10.641145 -16.666093 1.585100 0.000000 -39.392600
-4.220726 16.139634 -1.476307 179.069053 80.460390 -167.317217 -8.933950 2.113983 3.806623 -26.079197 -7.554949 -24.371797 -2.689436 0.960249 38.035116 2.574366 5.079693 -29.345542 176.950099 -0.000000 -4.352100 10.946906 -2.319673 0.348218 -2.119189 -7.640045 -20.826443 0.395608 -3.259121 53.714257 -2.414468 -10.676121 -17.961820 1.839000 -0.000001 -37.861700
